<svg id="Logo" xmlns="http://www.w3.org/2000/svg" viewBox="0 0 81.0193 101.8706">
  <title>ot-shield</title>
  <g>
    <path d="M70.1015,32.7537V61.3656a29.5927,29.5927,0,0,1-59.1854,0V10.9179H48.274V0H0V61.3656a40.51,40.51,0,0,0,81.0193,0V32.7537Z" fill="#003c71"/>
    <path d="M52.3891,82.4909a44.06,44.06,0,0,1-.4406,6.1621,29.781,29.781,0,0,0,12.1924-9.5A55.8357,55.8357,0,0,0,10.92,26.7829V38.6535a43.9616,43.9616,0,0,1,41.469,43.8374" fill="#0077ca"/>
    <polygon points="70.099 0 59.178 0 59.178 10.918 70.099 10.918 70.099 21.836 81.019 21.836 81.019 10.918 81.019 0 70.099 0" fill="#ff6a39"/>
  </g>
</svg>
